<svg width="20" height="20" viewBox="0 0 20 20" fill="none" xmlns="http://www.w3.org/2000/svg">
  <path
    d="M19.4607 9.07081C19.685 8.89576 19.8513 8.65157 19.9364 8.37247C20.0216 8.09337 20.0212 7.79335 19.9353 7.51449C19.8495 7.23563 19.6825 6.99191 19.4578 6.81749C19.2332 6.64308 18.962 6.54673 18.6824 6.54195L13.2521 6.32699C13.2254 6.32506 13.1998 6.31508 13.1784 6.29826C13.157 6.28143 13.1407 6.25848 13.1315 6.23216L11.255 0.92155C11.1607 0.651366 10.9895 0.418065 10.7645 0.253232C10.5395 0.0884004 10.2715 0 9.99698 0C9.72243 0 9.45451 0.0884004 9.2295 0.253232C9.00449 0.418065 8.83325 0.651366 8.73897 0.92155L6.86854 6.25113C6.8593 6.27744 6.84299 6.3004 6.82157 6.31722C6.80016 6.33405 6.77457 6.34403 6.74787 6.34596L1.31759 6.56091C1.038 6.5657 0.766843 6.66205 0.542147 6.83646C0.317451 7.01087 0.150483 7.2546 0.0646547 7.53346C-0.0211739 7.81232 -0.0215589 8.11233 0.0635534 8.39144C0.148666 8.67054 0.315008 8.91473 0.539255 9.08977L4.799 12.5986C4.82032 12.6161 4.83626 12.6399 4.84484 12.6669C4.85341 12.6938 4.85426 12.7228 4.84727 12.7503L3.3811 18.1937C3.30512 18.4709 3.31248 18.7659 3.40218 19.0385C3.49188 19.3112 3.65955 19.5482 3.8824 19.7175C4.10525 19.8867 4.37245 19.98 4.64765 19.9845C4.92285 19.989 5.19269 19.9045 5.42047 19.7426L9.92156 16.5815C9.94373 16.5655 9.97004 16.5569 9.99698 16.5569C10.0239 16.5569 10.0502 16.5655 10.0724 16.5815L14.5735 19.7426C14.7982 19.91 15.0671 20 15.3428 20C15.6185 20 15.8874 19.91 16.1121 19.7426C16.335 19.5749 16.5028 19.339 16.5925 19.0673C16.6822 18.7956 16.6893 18.5014 16.6129 18.2253L15.1346 12.7629C15.1268 12.7355 15.1272 12.7062 15.1359 12.6791C15.1445 12.6519 15.1609 12.6282 15.1829 12.6112L19.4607 9.07081Z"
    fill="currentColor" />
</svg>